# xmcd
#
# Track frame offsets:
#	150
#	10922
#	22970
#	36637
#	47277
#	57272
#	69203
#	80117
#	92622
#	105696
#	114921
#	127529
#
# Disc length: 1885 seconds
#
# Revision: 1
# Processed by: cddbd v1.5.2PL0 Copyright (c) Steve Scherf et al.
# Submitted via: audiograbber 1.83.01
#
DISCID=89075b0c
DTITLE=Norm and Joanne Post - For Sale: A Tribute to Hank and Anita
DYEAR=2011
DGENRE=Country
TTITLE0=Promised to John
TTITLE1=For Sale
TTITLE2=Rose of Old Monterey
TTITLE3=If It's Wrong to Love You
TTITLE4=Down the Trail of Achin' Hearts
TTITLE5=I Never Will Marry
TTITLE6=Let's Pretend
TTITLE7=When My Blue Moon Turns to Gold Again
TTITLE8=My Adobe Hacienda
TTITLE9=Mockingbird Hill
TTITLE10=Bluebird Island
TTITLE11=One More Ride
EXTD=
EXTT0=
EXTT1=
EXTT2=
EXTT3=
EXTT4=
EXTT5=
EXTT6=
EXTT7=
EXTT8=
EXTT9=
EXTT10=
EXTT11=
PLAYORDER=
